# xmcd CD database file
#
# Track frame offsets:
#	150
#	27305
#	44986
#	64060
#
# Disc length: 1150 seconds
#
# Revision: 0
# Processed by: cddbd v1.5.1PL0 Copyright (c) Steve Scherf et al.
# Submitted via: CD2WAV32(JP) R3.22
#
DISCID=37047c04
DTITLE=川村結花 - オールディーズ〜夏盤〜
DYEAR=2002
DGENRE=Pop
TTITLE0=オールディーズ
TTITLE1=君を見た最後の場面
TTITLE2=届かぬ夏
TTITLE3=PRAYER
EXTD=
EXTT0=
EXTT1=
EXTT2=
EXTT3=
PLAYORDER=
